<?xml version="1.0" encoding="UTF-8" standalone="no"?>
<!-- Created with Inkscape (http://www.inkscape.org/) -->

<svg
   width="210mm"
   height="297mm"
   viewBox="0 0 210 297"
   version="1.1"
   id="svg5"
   inkscape:version="1.2.1 (9c6d41e410, 2022-07-14)"
   sodipodi:docname="avt1.svg"
   xmlns:inkscape="http://www.inkscape.org/namespaces/inkscape"
   xmlns:sodipodi="http://sodipodi.sourceforge.net/DTD/sodipodi-0.dtd"
   xmlns="http://www.w3.org/2000/svg"
   xmlns:svg="http://www.w3.org/2000/svg">
  <sodipodi:namedview
     id="namedview7"
     pagecolor="#ffffff"
     bordercolor="#000000"
     borderopacity="0.25"
     inkscape:showpageshadow="2"
     inkscape:pageopacity="0.0"
     inkscape:pagecheckerboard="0"
     inkscape:deskcolor="#d1d1d1"
     inkscape:document-units="mm"
     showgrid="false"
     inkscape:zoom="0.604597"
     inkscape:cx="458.98342"
     inkscape:cy="503.64127"
     inkscape:window-width="1920"
     inkscape:window-height="991"
     inkscape:window-x="-9"
     inkscape:window-y="-9"
     inkscape:window-maximized="1"
     inkscape:current-layer="layer1" />
  <defs
     id="defs2" />
  <g
     inkscape:label="Layer 1"
     inkscape:groupmode="layer"
     id="layer1">
    <rect
       style="fill:#deaa87;stroke:#000000;stroke-width:1.36303;stroke-dasharray:none;stroke-opacity:1"
       id="rect2364"
       width="14.355713"
       height="30.258249"
       x="96.408844"
       y="105.07534"
       rx="21.103439"
       ry="7.1876264" />
    <path
       style="fill:#ffffff;stroke:#000000;stroke-width:0.499999;stroke-dasharray:none"
       id="path7516"
       sodipodi:type="arc"
       sodipodi:cx="103.6939"
       sodipodi:cy="80.588455"
       sodipodi:rx="23.900578"
       sodipodi:ry="25.210197"
       sodipodi:start="3.629188"
       sodipodi:end="3.6163651"
       sodipodi:open="true"
       sodipodi:arc-type="arc"
       d="M 82.578649,68.777406 A 23.900578,25.210197 0 0 1 114.82364,58.278455 23.900578,25.210197 0 0 1 124.88051,92.256465 23.900578,25.210197 0 0 1 92.699997,102.97326 23.900578,25.210197 0 0 1 82.436805,69.063965" />
    <path
       id="path2372"
       style="fill:#deaa87;stroke:#000000;stroke-width:1.5;stroke-dasharray:none;stroke-opacity:1"
       d="m 103.74043,63.281409 c -11.342955,0 -20.518605,8.94551 -20.889156,20.195149 a 4.770761,6.5481033 0 0 0 -2.276347,-0.79375 4.770761,6.5481033 0 0 0 -4.770768,6.547921 4.770761,6.5481033 0 0 0 4.770768,6.548438 4.770761,6.5481033 0 0 0 2.263428,-0.785482 v 4.800224 c 0,11.579741 9.322341,20.902081 20.902075,20.902081 11.57975,0 20.90209,-9.32234 20.90209,-20.902081 v -4.591968 a 4.770761,6.5481033 0 0 0 1.95595,0.577226 4.770761,6.5481033 0 0 0 4.77077,-6.548438 4.770761,6.5481033 0 0 0 -4.77077,-6.547921 4.770761,6.5481033 0 0 0 -1.97714,0.589112 C 124.14694,72.118681 115.0145,63.281409 103.74043,63.281409 Z" />
    <rect
       style="fill:#deaa87;stroke:#000000;stroke-width:1.5;stroke-dasharray:none;stroke-opacity:1"
       id="rect2394"
       width="0.13229166"
       height="3.8695312"
       x="82.715363"
       y="90.603256"
       rx="20.902082"
       ry="3.8695312" />
    <rect
       style="fill:#deaa87;stroke:#000000;stroke-width:1.5;stroke-dasharray:none;stroke-opacity:1"
       id="rect2396"
       width="0.13229166"
       height="3.8695312"
       x="124.59984"
       y="90.977432"
       rx="20.902082"
       ry="3.8695312" />
    <path
       id="path2743"
       style="fill:#ffffff;stroke:#000000;stroke-width:1.5;stroke-dasharray:none;stroke-opacity:1"
       d="m 94.225001,104.24583 a 9.3927078,9.3927078 0 0 0 -0.03101,0.66146 9.3927078,9.3927078 0 0 0 9.392709,9.39271 9.3927078,9.3927078 0 0 0 9.39271,-9.39271 9.3927078,9.3927078 0 0 0 -0.0243,-0.66146 z"
       inkscape:transform-center-x="27.252083"
       inkscape:transform-center-y="4.2333333" />
    <path
       id="rect5774"
       style="fill:#e9c6af;stroke:#000000;stroke-width:1"
       d="m 91.472965,127.61647 c -6.9237,0 -12.511076,5.51636 -12.626103,12.41164 H 78.65721 v 22.1356 h 49.85898 v -22.1356 h -0.0961 c -0.11503,-6.89528 -5.70189,-12.41164 -12.62559,-12.41164 z" />
    <rect
       style="fill:#e9c6af;stroke:#000000;stroke-width:1"
       id="rect5831"
       width="0.72760415"
       height="33.205208"
       x="117.80573"
       y="128.4552"
       rx="21.103439"
       ry="0" />
    <rect
       style="fill:#e9c6af;stroke:#000000;stroke-width:1"
       id="rect5833"
       width="0.72760415"
       height="33.205208"
       x="90.024483"
       y="128.4552"
       rx="21.103439"
       ry="0" />
    <rect
       style="fill:#f9f9f9;stroke:#000000;stroke-width:1.36303;stroke-dasharray:none;stroke-opacity:1"
       id="rect5873"
       width="14.355713"
       height="30.258249"
       x="161.14153"
       y="105.07534"
       rx="21.103439"
       ry="7.1876264" />
    <path
       id="path5875"
       style="fill:#ffffff;stroke:#000000;stroke-width:1.5;stroke-dasharray:none;stroke-opacity:1"
       d="m 168.47311,63.281409 c -11.34296,0 -20.51861,8.94551 -20.88916,20.195149 a 4.770761,6.5481033 0 0 0 -2.27634,-0.79375 4.770761,6.5481033 0 0 0 -4.77077,6.547921 4.770761,6.5481033 0 0 0 4.77077,6.548438 4.770761,6.5481033 0 0 0 2.26342,-0.785482 v 4.800224 c 0,11.579741 9.32235,20.902081 20.90208,20.902081 11.57975,0 20.90209,-9.32234 20.90209,-20.902081 v -4.591968 a 4.770761,6.5481033 0 0 0 1.95595,0.577226 4.770761,6.5481033 0 0 0 4.77077,-6.548438 4.770761,6.5481033 0 0 0 -4.77077,-6.547921 4.770761,6.5481033 0 0 0 -1.97714,0.589112 c -0.47439,-11.153239 -9.60683,-19.990511 -20.8809,-19.990511 z" />
    <rect
       style="fill:#deaa87;stroke:#000000;stroke-width:1.5;stroke-dasharray:none;stroke-opacity:1"
       id="rect5877"
       width="0.13229166"
       height="3.8695312"
       x="147.44804"
       y="90.603256"
       rx="20.902082"
       ry="3.8695312" />
    <rect
       style="fill:#deaa87;stroke:#000000;stroke-width:1.5;stroke-dasharray:none;stroke-opacity:1"
       id="rect5879"
       width="0.13229166"
       height="3.8695312"
       x="189.33252"
       y="90.977432"
       rx="20.902082"
       ry="3.8695312" />
    <path
       id="path5891"
       style="fill:#ffffff;stroke:#000000;stroke-width:1.5;stroke-dasharray:none;stroke-opacity:1"
       d="m 178.50573,112.99091 a 12.717189,9.3927078 89.426105 0 0 0.022,-0.89583 12.717189,9.3927078 89.426105 0 0 -9.51962,-12.622478 12.717189,9.3927078 89.426105 0 0 -9.26486,12.810638 12.717189,9.3927078 89.426105 0 0 0.0333,0.89527 z"
       inkscape:transform-center-x="-27.252054"
       inkscape:transform-center-y="-5.9576241" />
    <path
       id="path5893"
       style="fill:#ffffff;stroke:#000000;stroke-width:1"
       d="m 156.20564,127.61647 c -6.9237,0 -12.51107,5.51636 -12.6261,12.41164 h -0.18965 v 22.1356 h 49.85898 v -22.1356 h -0.0961 c -0.11503,-6.89528 -5.70189,-12.41164 -12.62559,-12.41164 z" />
    <rect
       style="fill:#e9c6af;stroke:#000000;stroke-width:1"
       id="rect5895"
       width="0.72760415"
       height="33.205208"
       x="182.53841"
       y="128.4552"
       rx="21.103439"
       ry="0" />
    <rect
       style="fill:#e9c6af;stroke:#000000;stroke-width:1"
       id="rect5897"
       width="0.72760415"
       height="33.205208"
       x="154.75716"
       y="128.4552"
       rx="21.103439"
       ry="0" />
    <path
       style="fill:#ffffff;stroke:#000000;stroke-width:0.499999;stroke-dasharray:none"
       id="path7396"
       sodipodi:type="arc"
       sodipodi:cx="17.193346"
       sodipodi:cy="121.37125"
       sodipodi:rx="10.476966"
       sodipodi:ry="24.882753"
       sodipodi:start="3.8064588"
       sodipodi:end="3.6163651"
       sodipodi:arc-type="slice"
       d="m 8.9479804,106.01974 a 10.476966,24.882753 0 0 1 14.3101716,-4.93838 10.476966,24.882753 0 0 1 2.756783,33.71363 10.476966,24.882753 0 0 1 -14.048246,8.14154 10.476966,24.882753 0 0 1 -4.0915226,-32.94009 l 9.3181796,11.37481 z"
       transform="rotate(-19.186482)"
       inkscape:transform-center-x="-6.2664844"
       inkscape:transform-center-y="-5.1460783" />
    <rect
       style="fill:#deaa87;stroke:#000000;stroke-width:1.36303;stroke-dasharray:none;stroke-opacity:1"
       id="rect5899"
       width="14.355713"
       height="30.258249"
       x="32.985786"
       y="105.07534"
       rx="21.103439"
       ry="7.1876264" />
    <path
       style="fill:#ffffff;stroke:#000000;stroke-width:0.499999;stroke-dasharray:none"
       id="path7398"
       sodipodi:type="arc"
       sodipodi:cx="-59.604095"
       sodipodi:cy="-93.734154"
       sodipodi:rx="10.476966"
       sodipodi:ry="24.882753"
       sodipodi:start="3.629188"
       sodipodi:end="3.6163651"
       sodipodi:arc-type="arc"
       d="m -68.860097,-105.39179 a 10.476966,24.882753 0 0 1 14.134792,-10.36259 10.476966,24.882753 0 0 1 4.408491,33.536685 10.476966,24.882753 0 0 1 -14.106527,10.577604 10.476966,24.882753 0 0 1 -4.498934,-33.468869"
       transform="rotate(-159.8661)"
       inkscape:transform-center-x="8.1086825"
       inkscape:transform-center-y="0.01028435"
       sodipodi:open="true" />
    <ellipse
       style="fill:#f9f9f9;stroke:#000000;stroke-width:1"
       id="path6794"
       cx="40.415104"
       cy="80.1026"
       rx="22.555729"
       ry="23.481771" />
    <path
       id="path5901"
       style="fill:#deaa87;stroke:#000000;stroke-width:1.5;stroke-dasharray:none;stroke-opacity:1"
       d="m 40.317372,63.281409 c -11.34296,0 -20.51861,8.94551 -20.88916,20.195149 a 4.770761,6.5481033 0 0 0 -2.27634,-0.79375 4.770761,6.5481033 0 0 0 -4.77077,6.547921 4.770761,6.5481033 0 0 0 4.77077,6.548438 4.770761,6.5481033 0 0 0 2.26342,-0.785482 v 4.800224 c 0,11.579741 9.32235,20.902081 20.90208,20.902081 11.57975,0 20.90209,-9.32234 20.90209,-20.902081 v -4.591968 a 4.770761,6.5481033 0 0 0 1.95595,0.577226 4.770761,6.5481033 0 0 0 4.77077,-6.548438 4.770761,6.5481033 0 0 0 -4.77077,-6.547921 4.770761,6.5481033 0 0 0 -1.97714,0.589112 c -0.47439,-11.153239 -9.60683,-19.990511 -20.8809,-19.990511 z" />
    <rect
       style="fill:#deaa87;stroke:#000000;stroke-width:1.5;stroke-dasharray:none;stroke-opacity:1"
       id="rect5903"
       width="0.13229166"
       height="3.8695312"
       x="19.292305"
       y="90.603256"
       rx="20.902082"
       ry="3.8695312" />
    <rect
       style="fill:#deaa87;stroke:#000000;stroke-width:1.5;stroke-dasharray:none;stroke-opacity:1"
       id="rect5905"
       width="0.13229166"
       height="3.8695312"
       x="61.176781"
       y="90.977432"
       rx="20.902082"
       ry="3.8695312" />
    <ellipse
       style="fill:#deaa87;stroke:#000000;stroke-width:1.5;stroke-dasharray:none;stroke-opacity:1"
       id="ellipse5907"
       cx="31.430901"
       cy="89.288063"
       rx="4.1159506"
       ry="4.3498116" />
    <ellipse
       style="fill:#ffffff;stroke:#000000;stroke-width:1.5;stroke-dasharray:none;stroke-opacity:1"
       id="ellipse5909"
       cx="31.430901"
       cy="89.288063"
       rx="4.2094951"
       ry="4.3498116" />
    <path
       style="fill:#deaa87;stroke:#000000;stroke-width:1.5;stroke-dasharray:none;stroke-opacity:1"
       id="ellipse5911"
       sodipodi:type="arc"
       sodipodi:cx="49.204323"
       sodipodi:cy="89.288063"
       sodipodi:rx="3.6482291"
       sodipodi:ry="4.3498116"
       sodipodi:start="3.8064588"
       sodipodi:end="3.6163651"
       sodipodi:arc-type="slice"
       d="m 46.333169,86.60443 a 3.6482291,4.3498116 0 0 1 4.983006,-0.863288 3.6482291,4.3498116 0 0 1 0.959951,5.893557 3.6482291,4.3498116 0 0 1 -4.8918,1.423242 3.6482291,4.3498116 0 0 1 -1.424726,-5.758334 l 3.244723,1.988456 z" />
    <path
       style="fill:#f9f9f9;stroke:#000000;stroke-width:0.5;stroke-dasharray:none;stroke-opacity:1"
       d="m 48.491762,92.759852 c -0.94023,-0.243383 -1.81654,-0.999961 -2.26402,-1.954679 -0.22203,-0.473712 -0.2507,-0.647231 -0.2507,-1.517107 0,-0.869876 0.0287,-1.043392 0.2507,-1.517108 0.3332,-0.710895 1.00717,-1.414753 1.65513,-1.728538 0.44646,-0.216199 0.64697,-0.254874 1.32145,-0.254874 0.67447,0 0.87499,0.03867 1.32144,0.254874 0.64797,0.313785 1.32194,1.017643 1.65513,1.728538 0.22203,0.473716 0.25071,0.647232 0.25071,1.517108 0,0.869876 -0.0287,1.043395 -0.25071,1.517107 -0.33252,0.709449 -1.0083,1.416656 -1.63869,1.714874 -0.55017,0.260275 -1.52908,0.374761 -2.05044,0.239805 z"
       id="path5913" />
    <path
       style="fill:#f2f2f2;stroke:#000000;stroke-width:0.5;stroke-dasharray:none;stroke-opacity:1"
       d="m 30.723732,92.760955 c -0.9346,-0.242882 -1.82707,-1.012013 -2.26941,-1.955782 -0.22203,-0.473712 -0.2507,-0.647231 -0.2507,-1.517107 0,-0.869876 0.0287,-1.043392 0.2507,-1.517108 0.33319,-0.710895 1.00716,-1.414753 1.65513,-1.728538 0.44645,-0.216199 0.64697,-0.254874 1.32144,-0.254874 0.67448,0 0.87499,0.03867 1.32145,0.254874 0.64796,0.313785 1.32193,1.017643 1.65513,1.728538 0.22203,0.473716 0.2507,0.647232 0.2507,1.517108 0,0.869876 -0.0287,1.043395 -0.2507,1.517107 -0.54499,1.16277 -1.60347,1.923706 -2.77241,1.99307 -0.34381,0.0204 -0.75391,0.0036 -0.91133,-0.03729 z"
       id="path5915" />
    <path
       id="path5917"
       style="fill:#f2f2f2;stroke:#000000;stroke-width:1.5;stroke-dasharray:none;stroke-opacity:1"
       d="m 30.801932,104.01197 a 9.3927078,9.3927078 0 0 0 -0.031,0.66146 9.3927078,9.3927078 0 0 0 9.39271,9.39271 9.3927078,9.3927078 0 0 0 9.39271,-9.39271 9.3927078,9.3927078 0 0 0 -0.0243,-0.66146 z"
       inkscape:transform-center-x="27.252083"
       inkscape:transform-center-y="4.2333333" />
    <path
       id="path5919"
       style="fill:#c83737;stroke:#000000;stroke-width:1"
       d="m 28.049902,127.61647 c -6.9237,0 -12.51107,5.51636 -12.6261,12.41164 h -0.18965 v 22.1356 h 49.85898 v -22.1356 h -0.0961 c -0.11503,-6.89528 -5.70189,-12.41164 -12.62559,-12.41164 z" />
    <rect
       style="fill:#e9c6af;stroke:#000000;stroke-width:0.999997"
       id="rect5921"
       width="0.72760415"
       height="26.312704"
       x="54.382668"
       y="135.3477"
       rx="21.103439"
       ry="0" />
    <rect
       style="fill:#e9c6af;stroke:#000000;stroke-width:1"
       id="rect5923"
       width="0.72760415"
       height="26.204046"
       x="26.601418"
       y="135.45636"
       rx="21.103439"
       ry="0" />
    <rect
       style="fill:#deaa87;stroke:#000000;stroke-width:1.36303;stroke-dasharray:none;stroke-opacity:1"
       id="rect5925"
       width="14.355713"
       height="30.258249"
       x="32.985786"
       y="210.21918"
       rx="21.103439"
       ry="7.1876264" />
    <path
       id="path5927"
       style="fill:#deaa87;stroke:#000000;stroke-width:1.5;stroke-dasharray:none;stroke-opacity:1"
       d="m 40.317372,168.42524 c -11.34296,0 -20.51861,8.94551 -20.88916,20.19515 a 4.770761,6.5481033 0 0 0 -2.27634,-0.79375 4.770761,6.5481033 0 0 0 -4.77077,6.54792 4.770761,6.5481033 0 0 0 4.77077,6.54844 4.770761,6.5481033 0 0 0 2.26342,-0.78548 v 4.80022 c 0,11.57974 9.32235,20.90208 20.90208,20.90208 11.57975,0 20.90209,-9.32234 20.90209,-20.90208 v -4.59197 a 4.770761,6.5481033 0 0 0 1.95595,0.57723 4.770761,6.5481033 0 0 0 4.77077,-6.54844 4.770761,6.5481033 0 0 0 -4.77077,-6.54792 4.770761,6.5481033 0 0 0 -1.97714,0.58911 c -0.47439,-11.15324 -9.60683,-19.99051 -20.8809,-19.99051 z" />
    <rect
       style="fill:#deaa87;stroke:#000000;stroke-width:1.5;stroke-dasharray:none;stroke-opacity:1"
       id="rect5929"
       width="0.13229166"
       height="3.8695312"
       x="19.292305"
       y="195.74709"
       rx="20.902082"
       ry="3.8695312" />
    <rect
       style="fill:#deaa87;stroke:#000000;stroke-width:1.5;stroke-dasharray:none;stroke-opacity:1"
       id="rect5931"
       width="0.13229166"
       height="3.8695312"
       x="61.176781"
       y="196.12126"
       rx="20.902082"
       ry="3.8695312" />
    <ellipse
       style="fill:#deaa87;stroke:#000000;stroke-width:1.5;stroke-dasharray:none;stroke-opacity:1"
       id="ellipse5933"
       cx="31.430901"
       cy="194.4319"
       rx="4.1159506"
       ry="4.3498116" />
    <ellipse
       style="fill:#ffffff;stroke:#000000;stroke-width:1.5;stroke-dasharray:none;stroke-opacity:1"
       id="ellipse5935"
       cx="31.430901"
       cy="194.4319"
       rx="4.1159506"
       ry="4.3498116" />
    <ellipse
       style="fill:#deaa87;stroke:#000000;stroke-width:1.5;stroke-dasharray:none;stroke-opacity:1"
       id="ellipse5937"
       cx="49.204323"
       cy="194.4319"
       rx="4.1159506"
       ry="4.3498116" />
    <path
       style="fill:#ffffff;stroke:#000000;stroke-width:1.5;stroke-dasharray:none;stroke-opacity:1"
       d="m 48.491762,197.90368 c -0.94023,-0.24338 -1.81654,-0.99996 -2.26402,-1.95467 -0.22203,-0.47372 -0.2507,-0.64724 -0.2507,-1.51711 0,-0.86988 0.0287,-1.04339 0.2507,-1.51711 0.3332,-0.71089 1.00717,-1.41475 1.65513,-1.72854 0.44646,-0.2162 0.64697,-0.25487 1.32145,-0.25487 0.67447,0 0.87499,0.0387 1.32144,0.25487 0.64797,0.31379 1.32194,1.01765 1.65513,1.72854 0.22203,0.47372 0.25071,0.64723 0.25071,1.51711 0,0.86987 -0.0287,1.04339 -0.25071,1.51711 -0.33252,0.70944 -1.0083,1.41665 -1.63869,1.71487 -0.55017,0.26027 -1.52908,0.37476 -2.05044,0.2398 z"
       id="path5939" />
    <path
       style="fill:#ffffff;stroke:#000000;stroke-width:1.5;stroke-dasharray:none;stroke-opacity:1"
       d="m 30.723732,197.90479 c -0.9346,-0.24288 -1.82707,-1.01202 -2.26941,-1.95578 -0.22203,-0.47372 -0.2507,-0.64724 -0.2507,-1.51711 0,-0.86988 0.0287,-1.04339 0.2507,-1.51711 0.33319,-0.71089 1.00716,-1.41475 1.65513,-1.72854 0.44645,-0.2162 0.64697,-0.25487 1.32144,-0.25487 0.67448,0 0.87499,0.0387 1.32145,0.25487 0.64796,0.31379 1.32193,1.01765 1.65513,1.72854 0.22203,0.47372 0.2507,0.64723 0.2507,1.51711 0,0.86987 -0.0287,1.04339 -0.2507,1.51711 -0.54499,1.16277 -1.60347,1.9237 -2.77241,1.99307 -0.34381,0.0204 -0.75391,0.004 -0.91133,-0.0373 z"
       id="path5941" />
    <path
       id="path5943"
       style="fill:#ffffff;stroke:#000000;stroke-width:1.5;stroke-dasharray:none;stroke-opacity:1"
       d="m 30.801942,209.38966 a 9.3927078,9.3927078 0 0 0 -0.031,0.66146 9.3927078,9.3927078 0 0 0 9.39271,9.39271 9.3927078,9.3927078 0 0 0 9.39271,-9.39271 9.3927078,9.3927078 0 0 0 -0.0243,-0.66146 z"
       inkscape:transform-center-x="27.252083"
       inkscape:transform-center-y="4.2333333" />
    <path
       id="path5945"
       style="fill:#e9c6af;stroke:#000000;stroke-width:1"
       d="m 28.049902,232.7603 c -6.9237,0 -12.51107,5.51636 -12.6261,12.41164 h -0.18965 v 22.1356 h 49.85898 v -22.1356 h -0.0961 c -0.11503,-6.89528 -5.70189,-12.41164 -12.62559,-12.41164 z" />
    <rect
       style="fill:#e9c6af;stroke:#000000;stroke-width:1"
       id="rect5947"
       width="0.72760415"
       height="33.205208"
       x="54.382668"
       y="233.59903"
       rx="21.103439"
       ry="0" />
    <rect
       style="fill:#e9c6af;stroke:#000000;stroke-width:1"
       id="rect5949"
       width="0.72760415"
       height="33.205208"
       x="26.601418"
       y="233.59903"
       rx="21.103439"
       ry="0" />
    <rect
       style="fill:#deaa87;stroke:#000000;stroke-width:1.36303;stroke-dasharray:none;stroke-opacity:1"
       id="rect5951"
       width="14.355713"
       height="30.258249"
       x="161.70279"
       y="210.21918"
       rx="21.103439"
       ry="7.1876264" />
    <path
       id="path5953"
       style="fill:#deaa87;stroke:#000000;stroke-width:1.5;stroke-dasharray:none;stroke-opacity:1"
       d="m 169.03438,168.42524 c -11.34296,0 -20.51861,8.94551 -20.88916,20.19515 a 4.770761,6.5481033 0 0 0 -2.27634,-0.79375 4.770761,6.5481033 0 0 0 -4.77077,6.54792 4.770761,6.5481033 0 0 0 4.77077,6.54844 4.770761,6.5481033 0 0 0 2.26342,-0.78548 v 4.80022 c 0,11.57974 9.32235,20.90208 20.90208,20.90208 11.57975,0 20.90209,-9.32234 20.90209,-20.90208 v -4.59197 a 4.770761,6.5481033 0 0 0 1.95595,0.57723 4.770761,6.5481033 0 0 0 4.77077,-6.54844 4.770761,6.5481033 0 0 0 -4.77077,-6.54792 4.770761,6.5481033 0 0 0 -1.97714,0.58911 c -0.47439,-11.15324 -9.60683,-19.99051 -20.8809,-19.99051 z" />
    <rect
       style="fill:#deaa87;stroke:#000000;stroke-width:1.5;stroke-dasharray:none;stroke-opacity:1"
       id="rect5955"
       width="0.13229166"
       height="3.8695312"
       x="148.00931"
       y="195.74709"
       rx="20.902082"
       ry="3.8695312" />
    <rect
       style="fill:#deaa87;stroke:#000000;stroke-width:1.5;stroke-dasharray:none;stroke-opacity:1"
       id="rect5957"
       width="0.13229166"
       height="3.8695312"
       x="189.89378"
       y="196.12126"
       rx="20.902082"
       ry="3.8695312" />
    <ellipse
       style="fill:#deaa87;stroke:#000000;stroke-width:1.5;stroke-dasharray:none;stroke-opacity:1"
       id="ellipse5959"
       cx="160.1479"
       cy="194.4319"
       rx="4.1159506"
       ry="4.3498116" />
    <ellipse
       style="fill:#ffffff;stroke:#000000;stroke-width:1.5;stroke-dasharray:none;stroke-opacity:1"
       id="ellipse5961"
       cx="160.1479"
       cy="194.4319"
       rx="4.1159506"
       ry="4.3498116" />
    <ellipse
       style="fill:#deaa87;stroke:#000000;stroke-width:1.5;stroke-dasharray:none;stroke-opacity:1"
       id="ellipse5963"
       cx="177.92133"
       cy="194.4319"
       rx="4.1159506"
       ry="4.3498116" />
    <path
       style="fill:#ffffff;stroke:#000000;stroke-width:1.5;stroke-dasharray:none;stroke-opacity:1"
       d="m 177.20877,197.90368 c -0.94023,-0.24338 -1.81654,-0.99996 -2.26402,-1.95467 -0.22203,-0.47372 -0.2507,-0.64724 -0.2507,-1.51711 0,-0.86988 0.0287,-1.04339 0.2507,-1.51711 0.3332,-0.71089 1.00717,-1.41475 1.65513,-1.72854 0.44646,-0.2162 0.64697,-0.25487 1.32145,-0.25487 0.67447,0 0.87499,0.0387 1.32144,0.25487 0.64797,0.31379 1.32194,1.01765 1.65513,1.72854 0.22203,0.47372 0.25071,0.64723 0.25071,1.51711 0,0.86987 -0.0287,1.04339 -0.25071,1.51711 -0.33252,0.70944 -1.0083,1.41665 -1.63869,1.71487 -0.55017,0.26027 -1.52908,0.37476 -2.05044,0.2398 z"
       id="path5965" />
    <path
       style="fill:#ffffff;stroke:#000000;stroke-width:1.5;stroke-dasharray:none;stroke-opacity:1"
       d="m 159.44074,197.90479 c -0.9346,-0.24288 -1.82707,-1.01202 -2.26941,-1.95578 -0.22203,-0.47372 -0.2507,-0.64724 -0.2507,-1.51711 0,-0.86988 0.0287,-1.04339 0.2507,-1.51711 0.33319,-0.71089 1.00716,-1.41475 1.65513,-1.72854 0.44645,-0.2162 0.64697,-0.25487 1.32144,-0.25487 0.67448,0 0.87499,0.0387 1.32145,0.25487 0.64796,0.31379 1.32193,1.01765 1.65513,1.72854 0.22203,0.47372 0.2507,0.64723 0.2507,1.51711 0,0.86987 -0.0287,1.04339 -0.2507,1.51711 -0.54499,1.16277 -1.60347,1.9237 -2.77241,1.99307 -0.34381,0.0204 -0.75391,0.004 -0.91133,-0.0373 z"
       id="path5967" />
    <path
       id="path5969"
       style="fill:#ffffff;stroke:#000000;stroke-width:1.5;stroke-dasharray:none;stroke-opacity:1"
       d="m 159.51895,209.38966 a 9.3927078,9.3927078 0 0 0 -0.031,0.66146 9.3927078,9.3927078 0 0 0 9.39271,9.39271 9.3927078,9.3927078 0 0 0 9.39271,-9.39271 9.3927078,9.3927078 0 0 0 -0.0243,-0.66146 z"
       inkscape:transform-center-x="27.252083"
       inkscape:transform-center-y="4.2333333" />
    <path
       id="path5971"
       style="fill:#e9c6af;stroke:#000000;stroke-width:1"
       d="m 156.76691,232.7603 c -6.9237,0 -12.51107,5.51636 -12.6261,12.41164 h -0.18965 v 22.1356 h 49.85898 v -22.1356 h -0.0961 c -0.11503,-6.89528 -5.70189,-12.41164 -12.62559,-12.41164 z" />
    <rect
       style="fill:#e9c6af;stroke:#000000;stroke-width:1"
       id="rect5973"
       width="0.72760415"
       height="33.205208"
       x="183.09967"
       y="233.59903"
       rx="21.103439"
       ry="0" />
    <rect
       style="fill:#e9c6af;stroke:#000000;stroke-width:1"
       id="rect5975"
       width="0.72760415"
       height="33.205208"
       x="155.31842"
       y="233.59903"
       rx="21.103439"
       ry="0" />
    <rect
       style="fill:#ffb380;stroke:#000000;stroke-width:1.36303;stroke-dasharray:none;stroke-opacity:1"
       id="rect5977"
       width="14.355713"
       height="30.258249"
       x="97.344284"
       y="210.21918"
       rx="21.103439"
       ry="7.1876264" />
    <path
       id="path5979"
       style="fill:#ffccaa;stroke:#000000;stroke-width:1.5;stroke-dasharray:none;stroke-opacity:1"
       d="m 104.67588,168.42524 c -11.342962,0 -20.518612,8.94551 -20.889162,20.19515 a 4.770761,6.5481033 0 0 0 -2.27634,-0.79375 4.770761,6.5481033 0 0 0 -4.77077,6.54792 4.770761,6.5481033 0 0 0 4.77077,6.54844 4.770761,6.5481033 0 0 0 2.26342,-0.78548 v 4.80022 c 0,11.57974 9.32235,20.90208 20.902082,20.90208 11.57975,0 20.90209,-9.32234 20.90209,-20.90208 v -4.59197 a 4.770761,6.5481033 0 0 0 1.95595,0.57723 4.770761,6.5481033 0 0 0 4.77077,-6.54844 4.770761,6.5481033 0 0 0 -4.77077,-6.54792 4.770761,6.5481033 0 0 0 -1.97714,0.58911 c -0.47439,-11.15324 -9.60683,-19.99051 -20.8809,-19.99051 z" />
    <rect
       style="fill:#ffb380;stroke:#000000;stroke-width:1.5;stroke-dasharray:none;stroke-opacity:1"
       id="rect5981"
       width="0.13229166"
       height="3.8695312"
       x="83.650803"
       y="195.74709"
       rx="20.902082"
       ry="3.8695312" />
    <rect
       style="fill:#ffb380;stroke:#000000;stroke-width:1.5;stroke-dasharray:none;stroke-opacity:1"
       id="rect5983"
       width="0.13229166"
       height="3.8695312"
       x="125.53528"
       y="196.12126"
       rx="20.902082"
       ry="3.8695312" />
    <path
       id="path5997"
       style="fill:#ffe6d5;stroke:#000000;stroke-width:1"
       d="m 92.408408,232.7603 c -6.9237,0 -12.51107,5.51636 -12.6261,12.41164 h -0.18965 v 22.1356 h 49.858982 v -22.1356 h -0.0961 c -0.11503,-6.89528 -5.70189,-12.41164 -12.62559,-12.41164 z" />
    <rect
       style="fill:#ffb380;stroke:#000000;stroke-width:1"
       id="rect5999"
       width="0.72760415"
       height="33.205208"
       x="118.74117"
       y="233.59903"
       rx="21.103439"
       ry="0" />
    <rect
       style="fill:#ffb380;stroke:#000000;stroke-width:1"
       id="rect6001"
       width="0.72760415"
       height="33.205208"
       x="90.959915"
       y="233.59903"
       rx="21.103439"
       ry="0" />
    <path
       style="fill:#aa0000;stroke:#000000;stroke-width:3.77953"
       d="m 104.57356,605.87534 c 0.71423,-10.76169 1.0273,-74.76697 0.47263,-96.62534 -0.31053,-12.2375 -0.69919,-22.86875 -0.86369,-23.625 l -0.29908,-1.375 46.43329,0.003 c 25.53831,0.002 48.24349,0.14394 50.45595,0.31621 l 4.02267,0.31322 -0.48442,3.80879 c -0.58791,4.62248 -0.73479,107.72507 -0.16552,116.18378 l 0.39539,5.875 -50.14539,3.4e-4 -50.14539,3.4e-4 z"
       id="path6003"
       transform="scale(0.26458333)" />
    <ellipse
       style="fill:#241c1c;stroke:#000000;stroke-width:1"
       id="path6437"
       cx="40.415104"
       cy="134.9375"
       rx="0.85989583"
       ry="1.0583333" />
    <ellipse
       style="fill:#241c1c;stroke:#000000;stroke-width:1"
       id="ellipse6439"
       cx="40.415104"
       cy="139.7"
       rx="0.85989583"
       ry="1.0583333" />
    <ellipse
       style="fill:#241c1c;stroke:#000000;stroke-width:1"
       id="ellipse6441"
       cx="40.415104"
       cy="144.99167"
       rx="0.85989583"
       ry="1.0583333" />
    <ellipse
       style="fill:#241c1c;stroke:#000000;stroke-width:1"
       id="ellipse6443"
       cx="40.415104"
       cy="150.01875"
       rx="0.85989583"
       ry="1.0583333" />
    <ellipse
       style="fill:#241c1c;stroke:#000000;stroke-width:1"
       id="ellipse6445"
       cx="40.415104"
       cy="154.91354"
       rx="0.85989583"
       ry="1.0583333" />
    <rect
       style="fill:#ffcc00;stroke:#000000;stroke-width:0.499999;stroke-dasharray:none"
       id="rect7278"
       width="17.118614"
       height="0.18708867"
       x="31.664761"
       y="107.06149" />
    <rect
       style="fill:#ffcc00;stroke:#000000;stroke-width:0.499999;stroke-dasharray:none"
       id="rect7280"
       width="0.14031649"
       height="1.8241144"
       x="34.751717"
       y="104.90997" />
    <rect
       style="fill:#ffcc00;stroke:#000000;stroke-width:0.499999;stroke-dasharray:none"
       id="rect7282"
       width="0.093544334"
       height="1.9176589"
       x="37.838684"
       y="104.81643" />
    <rect
       style="fill:#ffcc00;stroke:#000000;stroke-width:0.499999;stroke-dasharray:none"
       id="rect7284"
       width="0.14031649"
       height="1.8241144"
       x="40.785328"
       y="104.90997" />
    <rect
       style="fill:#ffcc00;stroke:#000000;stroke-width:0.499999;stroke-dasharray:none"
       id="rect7286"
       width="0.14031649"
       height="1.9176589"
       x="43.451344"
       y="104.8632" />
    <rect
       style="fill:#ffcc00;stroke:#000000;stroke-width:0.499999;stroke-dasharray:none"
       id="rect7288"
       width="0.046772167"
       height="1.9644309"
       x="46.257675"
       y="104.8632" />
    <path
       id="path7290"
       style="fill:#d40000;stroke:#000000;stroke-width:0.499999;stroke-dasharray:none"
       d="m 40.163125,110.05499 a 4.5369,2.9700325 0 0 0 -4.280359,1.98799 4.5369,2.9700325 0 0 0 4.280359,1.98748 4.5369,2.9700325 0 0 0 4.281393,-1.98851 4.5369,2.9700325 0 0 0 -4.281393,-1.98696 z" />
    <rect
       style="fill:#000000;stroke:#000000;stroke-width:0.499999;stroke-dasharray:none"
       id="rect7452"
       width="4.1159506"
       height="1.4967093"
       x="25.911779"
       y="84.844711" />
    <rect
       style="fill:#000000;stroke:#000000;stroke-width:0.499999;stroke-dasharray:none"
       id="rect7454"
       width="4.1159506"
       height="1.4967093"
       x="50.981663"
       y="84.844711" />
    <path
       sodipodi:type="spiral"
       style="fill:none;fill-rule:evenodd;stroke:#000000;stroke-width:0.264583"
       id="path7456"
       sodipodi:cx="16.463802"
       sodipodi:cy="88.212303"
       sodipodi:expansion="1"
       sodipodi:revolution="3"
       sodipodi:radius="1.966657"
       sodipodi:argument="-21.548775"
       sodipodi:t0="0"
       d="m 16.463802,88.212303 c -0.08911,-0.04221 0.01293,-0.140948 0.07016,-0.148112 0.155071,-0.01941 0.243895,0.156373 0.226065,0.288429 -0.03189,0.236217 -0.291293,0.355198 -0.506698,0.304019 -0.316116,-0.07511 -0.468911,-0.427723 -0.381973,-0.724969 0.115875,-0.396182 0.564645,-0.583597 0.943238,-0.459926 0.476421,0.155627 0.698776,0.701793 0.537881,1.161508 -0.194867,0.556777 -0.839067,0.814238 -1.379779,0.615834 -0.637211,-0.233812 -0.929878,-0.976416 -0.693788,-1.598048 0.272575,-0.7177 1.113818,-1.045636 1.816319,-0.771742 0.798226,0.311216 1.161477,1.251256 0.849695,2.034589 -0.349771,0.878781 -1.388721,1.277378 -2.252859,0.927649 -0.959357,-0.388266 -1.393324,-1.526206 -1.005602,-2.471129"
       transform="translate(0,0.93544335)" />
    <path
       sodipodi:type="spiral"
       style="fill:none;fill-rule:evenodd;stroke:#000000;stroke-width:0.264583"
       id="path7462"
       sodipodi:cx="16.463802"
       sodipodi:cy="88.212303"
       sodipodi:expansion="1"
       sodipodi:revolution="3"
       sodipodi:radius="1.966657"
       sodipodi:argument="-21.548775"
       sodipodi:t0="0"
       d="m 16.463802,88.212303 c -0.08911,-0.04221 0.01293,-0.140948 0.07016,-0.148112 0.155071,-0.01941 0.243895,0.156373 0.226065,0.288429 -0.03189,0.236217 -0.291293,0.355198 -0.506698,0.304019 -0.316116,-0.07511 -0.468911,-0.427723 -0.381973,-0.724969 0.115875,-0.396182 0.564645,-0.583597 0.943238,-0.459926 0.476421,0.155627 0.698776,0.701793 0.537881,1.161508 -0.194867,0.556777 -0.839067,0.814238 -1.379779,0.615834 -0.637211,-0.233812 -0.929878,-0.976416 -0.693788,-1.598048 0.272575,-0.7177 1.113818,-1.045636 1.816319,-0.771742 0.798226,0.311216 1.161477,1.251256 0.849695,2.034589 -0.349771,0.878781 -1.388721,1.277378 -2.252859,0.927649 -0.959357,-0.388266 -1.393324,-1.526206 -1.005602,-2.471129"
       transform="translate(48.268877,0.93544335)" />
    <path
       id="path7572"
       style="fill:#ffffff;stroke:#000000;stroke-width:0.499999;stroke-dasharray:none"
       d="M 104.56623 55.395068 A 23.900578 25.210197 0 0 0 82.578422 68.777197 L 82.436829 69.064001 A 23.900578 25.210197 0 0 0 79.81425 81.175924 L 81.009526 82.786678 L 90.08339 73.245142 L 86.809172 82.693144 L 99.344324 71.748592 L 95.415365 81.851335 L 108.13707 71.561523 L 104.6763 80.915991 L 120.20455 72.216264 L 116.8368 80.074182 L 127.58911 80.13516 A 23.900578 25.210197 0 0 0 114.82348 58.278613 A 23.900578 25.210197 0 0 0 104.56623 55.395068 z " />
    <path
       id="path7579"
       style="fill:#ffffff;stroke:#000000;stroke-width:0.499999;stroke-dasharray:none"
       d="m 120.9487,109.28137 a 17.265157,8.754106 0 0 1 -1.80592,2.88529 17.265157,8.754106 0 0 1 -23.246147,3.7216 17.265157,8.754106 0 0 1 -9.050338,-6.2507 17.860507,9.3416295 0 0 0 8.938711,10.8848 17.860507,9.3416295 0 0 0 24.048254,-3.9713 17.860507,9.3416295 0 0 0 1.11544,-7.26969 z" />
    <path
       style="fill:#f9f9f9;stroke:#000000;stroke-width:0.499999;stroke-dasharray:none"
       d="m 146.88592,78.520986 1.2332,5.497128 8.08943,-5.940286 16.33594,-5.443943 12.55447,6.502485 1.05881,7.258592 3.6845,-3.249158 0.15472,-0.309443 0.31983,-11.687343 c 2.12943,-13.254924 -7.13363,-7.291046 -12.34434,-8.801637 L 160.4276,61.580775 c -5.47309,8.62275 -8.88701,2.07867 -12.41707,10.039411 z"
       id="path7876"
       sodipodi:nodetypes="ccccccccccccc" />
    <rect
       style="fill:#f9f9f9;stroke:#000000;stroke-width:0.499999"
       id="rect442"
       width="4.254849"
       height="8.4323378"
       x="92.523628"
       y="85.56115"
       ry="1.7019387" />
    <rect
       style="fill:#f9f9f9;stroke:#000000;stroke-width:0.499999"
       id="rect444"
       width="4.254849"
       height="8.4323378"
       x="109.38831"
       y="85.56115"
       ry="1.7019387" />
    <rect
       style="fill:#f9f9f9;stroke:#000000;stroke-width:0.499999"
       id="rect446"
       width="20.268555"
       height="3.4038794"
       x="158.4351"
       y="86.953644"
       ry="1.7019386" />
    <path
       sodipodi:type="star"
       style="fill:#f9f9f9;stroke:#000000;stroke-width:0.499999"
       id="path552"
       inkscape:flatsided="false"
       sodipodi:sides="5"
       sodipodi:cx="109.23358"
       sodipodi:cy="188.76059"
       sodipodi:r1="4.3980198"
       sodipodi:r2="2.1990099"
       sodipodi:arg1="0.88506682"
       sodipodi:arg2="1.5133853"
       inkscape:rounded="0"
       inkscape:randomized="0"
       d="m 112.01857,192.16447 -2.65881,-1.20849 -2.50285,1.50515 0.32773,-2.90213 -2.20491,-1.91523 2.86136,-0.58512 1.14014,-2.68883 1.44069,2.5405 2.90955,0.25344 -1.97096,2.15524 z"
       inkscape:transform-center-x="0.077983651"
       inkscape:transform-center-y="-0.34511841"
       transform="translate(4.6416539,4.6416539)" />
    <path
       sodipodi:type="star"
       style="fill:#f9f9f9;stroke:#000000;stroke-width:0.499999"
       id="path1037"
       inkscape:flatsided="false"
       sodipodi:sides="5"
       sodipodi:cx="109.23358"
       sodipodi:cy="188.76059"
       sodipodi:r1="4.3980198"
       sodipodi:r2="2.1990099"
       sodipodi:arg1="0.88506682"
       sodipodi:arg2="1.5133853"
       inkscape:rounded="0"
       inkscape:randomized="0"
       d="m 112.01857,192.16447 -2.65881,-1.20849 -2.50285,1.50515 0.32773,-2.90213 -2.20491,-1.91523 2.86136,-0.58512 1.14014,-2.68883 1.44069,2.5405 2.90955,0.25344 -1.97096,2.15524 z"
       inkscape:transform-center-x="0.077983651"
       inkscape:transform-center-y="-0.34511841"
       transform="translate(-12.996631,4.6416539)" />
    <rect
       style="fill:#f9f9f9;stroke:#000000;stroke-width:0.499999"
       id="rect1039"
       width="23.827156"
       height="7.4266462"
       x="92.678368"
       y="210.42165"
       ry="3.7133231" />
    <path
       id="path1088"
       style="fill:#f9f9f9;stroke:#000000;stroke-width:0.499999"
       d="m 104.68592,203.22817 a 8.0544153,2.0878221 0 0 0 -4.33299,0.32899 9.900219,1.1135051 0 0 0 -0.868691,-0.004 9.900219,1.1135051 0 0 0 -9.900089,1.11356 9.900219,1.1135051 0 0 0 7.214062,1.0714 8.0544153,2.0878221 0 0 0 7.887708,1.66598 8.0544153,2.0878221 0 0 0 7.98636,-1.82064 9.3968178,0.974317 0 0 0 8.01065,-0.96308 9.3968178,0.974317 0 0 0 -9.39681,-0.97439 9.3968178,0.974317 0 0 0 -1.68545,0.0163 8.0544153,2.0878221 0 0 0 -4.91475,-0.43373 z" />
    <rect
       style="fill:#deaa87;stroke:#000000;stroke-width:1.36303;stroke-dasharray:none;stroke-opacity:1"
       id="rect1095"
       width="14.355713"
       height="30.258249"
       x="161.70279"
       y="210.21918"
       rx="21.103439"
       ry="7.1876264" />
    <path
       id="path1097"
       style="fill:#deaa87;stroke:#000000;stroke-width:1.5;stroke-dasharray:none;stroke-opacity:1"
       d="m 169.03438,168.42524 c -11.34296,0 -20.51861,8.94551 -20.88916,20.19515 a 4.770761,6.5481033 0 0 0 -2.27634,-0.79375 4.770761,6.5481033 0 0 0 -4.77077,6.54792 4.770761,6.5481033 0 0 0 4.77077,6.54844 4.770761,6.5481033 0 0 0 2.26342,-0.78548 v 4.80022 c 0,11.57974 9.32235,20.90208 20.90208,20.90208 11.57975,0 20.90209,-9.32234 20.90209,-20.90208 v -4.59197 a 4.770761,6.5481033 0 0 0 1.95595,0.57723 4.770761,6.5481033 0 0 0 4.77077,-6.54844 4.770761,6.5481033 0 0 0 -4.77077,-6.54792 4.770761,6.5481033 0 0 0 -1.97714,0.58911 c -0.47439,-11.15324 -9.60683,-19.99051 -20.8809,-19.99051 z" />
    <rect
       style="fill:#deaa87;stroke:#000000;stroke-width:1.5;stroke-dasharray:none;stroke-opacity:1"
       id="rect1099"
       width="0.13229166"
       height="3.8695312"
       x="148.00931"
       y="195.74709"
       rx="20.902082"
       ry="3.8695312" />
    <rect
       style="fill:#deaa87;stroke:#000000;stroke-width:1.5;stroke-dasharray:none;stroke-opacity:1"
       id="rect1101"
       width="0.13229166"
       height="3.8695312"
       x="189.89378"
       y="196.12126"
       rx="20.902082"
       ry="3.8695312" />
    <ellipse
       style="fill:#deaa87;stroke:#000000;stroke-width:1.5;stroke-dasharray:none;stroke-opacity:1"
       id="ellipse1103"
       cx="160.1479"
       cy="194.4319"
       rx="4.1159506"
       ry="4.3498116" />
    <ellipse
       style="fill:#ffffff;stroke:#000000;stroke-width:1.5;stroke-dasharray:none;stroke-opacity:1"
       id="ellipse1105"
       cx="160.1479"
       cy="194.4319"
       rx="4.1159506"
       ry="4.3498116" />
    <ellipse
       style="fill:#deaa87;stroke:#000000;stroke-width:1.5;stroke-dasharray:none;stroke-opacity:1"
       id="ellipse1107"
       cx="177.92133"
       cy="194.4319"
       rx="4.1159506"
       ry="4.3498116" />
    <path
       style="fill:#ffffff;stroke:#000000;stroke-width:1.5;stroke-dasharray:none;stroke-opacity:1"
       d="m 177.20877,197.90368 c -0.94023,-0.24338 -1.81654,-0.99996 -2.26402,-1.95467 -0.22203,-0.47372 -0.2507,-0.64724 -0.2507,-1.51711 0,-0.86988 0.0287,-1.04339 0.2507,-1.51711 0.3332,-0.71089 1.00717,-1.41475 1.65513,-1.72854 0.44646,-0.2162 0.64697,-0.25487 1.32145,-0.25487 0.67447,0 0.87499,0.0387 1.32144,0.25487 0.64797,0.31379 1.32194,1.01765 1.65513,1.72854 0.22203,0.47372 0.25071,0.64723 0.25071,1.51711 0,0.86987 -0.0287,1.04339 -0.25071,1.51711 -0.33252,0.70944 -1.0083,1.41665 -1.63869,1.71487 -0.55017,0.26027 -1.52908,0.37476 -2.05044,0.2398 z"
       id="path1109" />
    <path
       style="fill:#ffffff;stroke:#000000;stroke-width:1.5;stroke-dasharray:none;stroke-opacity:1"
       d="m 159.44074,197.90479 c -0.9346,-0.24288 -1.82707,-1.01202 -2.26941,-1.95578 -0.22203,-0.47372 -0.2507,-0.64724 -0.2507,-1.51711 0,-0.86988 0.0287,-1.04339 0.2507,-1.51711 0.33319,-0.71089 1.00716,-1.41475 1.65513,-1.72854 0.44645,-0.2162 0.64697,-0.25487 1.32144,-0.25487 0.67448,0 0.87499,0.0387 1.32145,0.25487 0.64796,0.31379 1.32193,1.01765 1.65513,1.72854 0.22203,0.47372 0.2507,0.64723 0.2507,1.51711 0,0.86987 -0.0287,1.04339 -0.2507,1.51711 -0.54499,1.16277 -1.60347,1.9237 -2.77241,1.99307 -0.34381,0.0204 -0.75391,0.004 -0.91133,-0.0373 z"
       id="path1111" />
    <path
       id="path1113"
       style="fill:#ffffff;stroke:#000000;stroke-width:1.5;stroke-dasharray:none;stroke-opacity:1"
       d="m 159.51895,209.38966 a 9.3927078,9.3927078 0 0 0 -0.031,0.66146 9.3927078,9.3927078 0 0 0 9.39271,9.39271 9.3927078,9.3927078 0 0 0 9.39271,-9.39271 9.3927078,9.3927078 0 0 0 -0.0243,-0.66146 z"
       inkscape:transform-center-x="27.252083"
       inkscape:transform-center-y="4.2333333" />
    <path
       id="path1115"
       style="fill:#e9c6af;stroke:#000000;stroke-width:1"
       d="m 156.76691,232.7603 c -6.9237,0 -12.51107,5.51636 -12.6261,12.41164 h -0.18965 v 22.1356 h 49.85898 v -22.1356 h -0.0961 c -0.11503,-6.89528 -5.70189,-12.41164 -12.62559,-12.41164 z" />
    <rect
       style="fill:#e9c6af;stroke:#000000;stroke-width:1"
       id="rect1117"
       width="0.72760415"
       height="33.205208"
       x="183.09967"
       y="233.59903"
       rx="21.103439"
       ry="0" />
    <rect
       style="fill:#e9c6af;stroke:#000000;stroke-width:1"
       id="rect1119"
       width="0.72760415"
       height="33.205208"
       x="155.31842"
       y="233.59903"
       rx="21.103439"
       ry="0" />
  </g>
  <g
     inkscape:label="Layer 1 copy"
     inkscape:groupmode="layer"
     id="g2370" />
</svg>
